<svg width="255" height="52" viewBox="0 0 255 52" fill="none" xmlns="http://www.w3.org/2000/svg">
<path d="M35.5025 8.54873L13.0984 3.1432M35.5025 8.54873L32.6029 33.5165M35.5025 8.54873L12.1854 17.4297M35.5025 8.54873L29.3022 19.1367M13.0984 3.1432L6.31452 15.5191M13.0984 3.1432L12.1854 17.4297M6.31452 15.5191L6.28873 40.9633M6.31452 15.5191L12.1854 17.4297M6.28873 40.9633L17.9374 50.2931M6.28873 40.9633L14.0553 34.156M17.9374 50.2931L32.6029 33.5165M17.9374 50.2931L24.1411 36.0139M17.9374 50.2931L21.7834 29.2538M17.9374 50.2931L14.0553 34.156M32.6029 33.5165L24.1411 36.0139M12.1854 17.4297L21.7834 29.2538M12.1854 17.4297L14.0553 34.156M29.3022 19.1367L24.1411 36.0139M29.3022 19.1367L21.7834 29.2538" stroke="#242426" stroke-width="1.4"/>
<path d="M57.1611 16.7373H53.8301V14.9883H57.1611C57.7412 14.9883 58.21 14.8945 58.5674 14.707C58.9248 14.5195 59.1856 14.2617 59.3496 13.9336C59.5195 13.5996 59.6045 13.2188 59.6045 12.791C59.6045 12.3867 59.5195 12.0088 59.3496 11.6572C59.1856 11.2998 58.9248 11.0127 58.5674 10.7959C58.21 10.5791 57.7412 10.4707 57.1611 10.4707H54.5069V21.5098H52.3008V8.71289H57.1611C58.1514 8.71289 58.9922 8.88867 59.6836 9.24023C60.3809 9.58594 60.9111 10.0664 61.2744 10.6816C61.6377 11.291 61.8194 11.9883 61.8194 12.7734C61.8194 13.5996 61.6377 14.3086 61.2744 14.9004C60.9111 15.4922 60.3809 15.9463 59.6836 16.2627C58.9922 16.5791 58.1514 16.7373 57.1611 16.7373Z" fill="#A1A1A4"/>
<path d="M65.7129 13.8105V21.5098H63.5947V12H65.6162L65.7129 13.8105ZM68.6221 11.9385L68.6045 13.9072C68.4756 13.8838 68.335 13.8662 68.1826 13.8545C68.0361 13.8428 67.8897 13.8369 67.7432 13.8369C67.3799 13.8369 67.0606 13.8896 66.7852 13.9951C66.5098 14.0947 66.2783 14.2412 66.0908 14.4346C65.9092 14.6221 65.7686 14.8506 65.669 15.1201C65.5694 15.3896 65.5108 15.6914 65.4932 16.0254L65.0098 16.0605C65.0098 15.4629 65.0684 14.9092 65.1856 14.3994C65.3027 13.8896 65.4785 13.4414 65.7129 13.0547C65.9531 12.668 66.252 12.3662 66.6094 12.1494C66.9727 11.9326 67.3916 11.8242 67.8662 11.8242C67.9951 11.8242 68.1328 11.8359 68.2793 11.8594C68.4317 11.8828 68.5459 11.9092 68.6221 11.9385Z" fill="#A1A1A4"/>
<path d="M72.2168 12V21.5098H70.0899V12H72.2168ZM69.9492 9.50391C69.9492 9.18164 70.0547 8.91504 70.2656 8.7041C70.4824 8.4873 70.7813 8.37891 71.1621 8.37891C71.5371 8.37891 71.833 8.4873 72.0498 8.7041C72.2666 8.91504 72.375 9.18164 72.375 9.50391C72.375 9.82031 72.2666 10.084 72.0498 10.2949C71.833 10.5059 71.5371 10.6113 71.1621 10.6113C70.7813 10.6113 70.4824 10.5059 70.2656 10.2949C70.0547 10.084 69.9492 9.82031 69.9492 9.50391Z" fill="#A1A1A4"/>
<path d="M79.8721 18.9346C79.8721 18.7236 79.8194 18.5332 79.7139 18.3633C79.6084 18.1875 79.4063 18.0293 79.1074 17.8887C78.8145 17.748 78.3809 17.6191 77.8067 17.502C77.3027 17.3906 76.8399 17.2588 76.418 17.1064C76.002 16.9482 75.6445 16.7578 75.3457 16.5352C75.0469 16.3125 74.8154 16.0488 74.6514 15.7441C74.4873 15.4395 74.4053 15.0879 74.4053 14.6895C74.4053 14.3027 74.4902 13.9365 74.6602 13.5908C74.8301 13.2451 75.0733 12.9404 75.3897 12.6768C75.7061 12.4131 76.0899 12.2051 76.541 12.0527C76.9981 11.9004 77.5078 11.8242 78.0703 11.8242C78.8672 11.8242 79.5498 11.959 80.1182 12.2285C80.6924 12.4922 81.1319 12.8525 81.4365 13.3096C81.7412 13.7607 81.8936 14.2705 81.8936 14.8389H79.7754C79.7754 14.5869 79.711 14.3525 79.582 14.1357C79.459 13.9131 79.2715 13.7344 79.0195 13.5996C78.7676 13.459 78.4512 13.3887 78.0703 13.3887C77.707 13.3887 77.4053 13.4473 77.1651 13.5645C76.9307 13.6758 76.7549 13.8223 76.6377 14.0039C76.5264 14.1855 76.4707 14.3848 76.4707 14.6016C76.4707 14.7598 76.5 14.9033 76.5586 15.0322C76.6231 15.1553 76.7285 15.2695 76.875 15.375C77.0215 15.4746 77.2207 15.5684 77.4727 15.6562C77.7305 15.7441 78.0527 15.8291 78.4395 15.9111C79.166 16.0635 79.7901 16.2598 80.3115 16.5C80.8389 16.7344 81.2432 17.0391 81.5244 17.4141C81.8057 17.7832 81.9463 18.252 81.9463 18.8203C81.9463 19.2422 81.8555 19.6289 81.6738 19.9805C81.4981 20.3262 81.2402 20.6279 80.9004 20.8857C80.5606 21.1377 80.1533 21.334 79.6787 21.4746C79.21 21.6152 78.6826 21.6855 78.0967 21.6855C77.2354 21.6855 76.5059 21.5332 75.9082 21.2285C75.3106 20.918 74.8565 20.5225 74.5459 20.042C74.2412 19.5557 74.0889 19.0518 74.0889 18.5303H76.1367C76.1602 18.9229 76.2686 19.2363 76.4619 19.4707C76.6611 19.6992 76.9072 19.8662 77.2002 19.9717C77.499 20.0713 77.8067 20.1211 78.1231 20.1211C78.5039 20.1211 78.8233 20.0713 79.0811 19.9717C79.3389 19.8662 79.5352 19.7256 79.6699 19.5498C79.8047 19.3682 79.8721 19.1631 79.8721 18.9346Z" fill="#A1A1A4"/>
<path d="M85.919 13.9336V21.5098H83.8008V12H85.7959L85.919 13.9336ZM85.5762 16.4033L84.8555 16.3945C84.8555 15.7383 84.9375 15.1318 85.1016 14.5752C85.2656 14.0186 85.5059 13.5352 85.8223 13.125C86.1387 12.709 86.5313 12.3896 87 12.167C87.4746 11.9385 88.0225 11.8242 88.6436 11.8242C89.0772 11.8242 89.4727 11.8887 89.8301 12.0176C90.1934 12.1406 90.5069 12.3369 90.7705 12.6064C91.0401 12.876 91.2451 13.2217 91.3858 13.6436C91.5322 14.0654 91.6055 14.5752 91.6055 15.1729V21.5098H89.4873V15.3574C89.4873 14.8945 89.417 14.5312 89.2764 14.2676C89.1416 14.0039 88.9453 13.8164 88.6875 13.7051C88.4356 13.5879 88.1338 13.5293 87.7822 13.5293C87.3838 13.5293 87.044 13.6055 86.7627 13.7578C86.4873 13.9102 86.2617 14.1182 86.086 14.3818C85.9102 14.6455 85.7813 14.9502 85.6992 15.2959C85.6172 15.6416 85.5762 16.0107 85.5762 16.4033ZM91.4736 15.8408L90.4805 16.0605C90.4805 15.4863 90.5596 14.9443 90.7178 14.4346C90.8819 13.9189 91.1192 13.4678 91.4297 13.0811C91.7461 12.6885 92.1358 12.3809 92.5986 12.1582C93.0615 11.9355 93.5918 11.8242 94.1895 11.8242C94.6758 11.8242 95.1094 11.8916 95.4902 12.0264C95.877 12.1553 96.2051 12.3604 96.4746 12.6416C96.7442 12.9229 96.9492 13.2891 97.0899 13.7402C97.2305 14.1855 97.3008 14.7246 97.3008 15.3574V21.5098H95.1738V15.3486C95.1738 14.8682 95.1035 14.4961 94.9629 14.2324C94.8281 13.9688 94.6348 13.7871 94.3828 13.6875C94.1309 13.582 93.8291 13.5293 93.4776 13.5293C93.1494 13.5293 92.8594 13.5908 92.6074 13.7139C92.3613 13.8311 92.1533 13.998 91.9834 14.2148C91.8135 14.4258 91.6846 14.6689 91.5967 14.9443C91.5147 15.2197 91.4736 15.5186 91.4736 15.8408Z" fill="#A1A1A4"/>
<path d="M104.842 19.6025V15.0674C104.842 14.7275 104.78 14.4346 104.657 14.1885C104.534 13.9424 104.347 13.752 104.095 13.6172C103.849 13.4824 103.538 13.415 103.163 13.415C102.817 13.415 102.519 13.4736 102.267 13.5908C102.015 13.708 101.818 13.8662 101.678 14.0654C101.537 14.2646 101.467 14.4902 101.467 14.7422H99.3574C99.3574 14.3672 99.4483 14.0039 99.6299 13.6523C99.8115 13.3008 100.075 12.9873 100.421 12.7119C100.767 12.4365 101.18 12.2197 101.66 12.0615C102.141 11.9033 102.68 11.8242 103.277 11.8242C103.992 11.8242 104.625 11.9443 105.176 12.1846C105.732 12.4248 106.169 12.7881 106.485 13.2744C106.808 13.7549 106.969 14.3584 106.969 15.085V19.3125C106.969 19.7461 106.998 20.1357 107.057 20.4814C107.121 20.8213 107.212 21.1172 107.329 21.3691V21.5098H105.158C105.059 21.2812 104.98 20.9912 104.921 20.6396C104.868 20.2822 104.842 19.9365 104.842 19.6025ZM105.149 15.7266L105.167 17.0361H103.646C103.254 17.0361 102.908 17.0742 102.609 17.1504C102.311 17.2207 102.062 17.3262 101.862 17.4668C101.663 17.6074 101.514 17.7773 101.414 17.9766C101.314 18.1758 101.265 18.4014 101.265 18.6533C101.265 18.9053 101.323 19.1367 101.44 19.3477C101.558 19.5527 101.728 19.7139 101.95 19.8311C102.179 19.9482 102.454 20.0068 102.776 20.0068C103.21 20.0068 103.588 19.9189 103.91 19.7432C104.238 19.5615 104.496 19.3418 104.684 19.084C104.871 18.8203 104.971 18.5713 104.982 18.3369L105.668 19.2773C105.598 19.5176 105.478 19.7754 105.308 20.0508C105.138 20.3262 104.915 20.5898 104.64 20.8418C104.37 21.0879 104.045 21.29 103.664 21.4482C103.289 21.6064 102.855 21.6855 102.363 21.6855C101.742 21.6855 101.188 21.5625 100.702 21.3164C100.216 21.0645 99.835 20.7275 99.5596 20.3057C99.2842 19.8779 99.1465 19.3945 99.1465 18.8555C99.1465 18.3516 99.2402 17.9062 99.4277 17.5195C99.6211 17.127 99.9024 16.7988 100.271 16.5352C100.646 16.2715 101.104 16.0723 101.643 15.9375C102.182 15.7969 102.797 15.7266 103.488 15.7266H105.149Z" fill="#A1A1A4"/>
<path d="M59.2149 39.1465H54.7735V36.8145H59.2149C59.9883 36.8145 60.6133 36.6895 61.0899 36.4395C61.5664 36.1895 61.9141 35.8457 62.1328 35.4082C62.3594 34.9629 62.4727 34.4551 62.4727 33.8848C62.4727 33.3457 62.3594 32.8418 62.1328 32.373C61.9141 31.8965 61.5664 31.5137 61.0899 31.2246C60.6133 30.9355 59.9883 30.791 59.2149 30.791H55.6758V45.5098H52.7344V28.4473H59.2149C60.5352 28.4473 61.6563 28.6816 62.5781 29.1504C63.5078 29.6113 64.2149 30.252 64.6992 31.0723C65.1836 31.8848 65.4258 32.8145 65.4258 33.8613C65.4258 34.9629 65.1836 35.9082 64.6992 36.6973C64.2149 37.4863 63.5078 38.0918 62.5781 38.5137C61.6563 38.9355 60.5352 39.1465 59.2149 39.1465Z" fill="#242426"/>
<path d="M74.7891 42.9668V36.9199C74.7891 36.4668 74.707 36.0762 74.543 35.748C74.3789 35.4199 74.1289 35.166 73.793 34.9863C73.4649 34.8066 73.0508 34.7168 72.5508 34.7168C72.0899 34.7168 71.6914 34.7949 71.3555 34.9512C71.0195 35.1074 70.7578 35.3184 70.5703 35.584C70.3828 35.8496 70.2891 36.1504 70.2891 36.4863H67.4766C67.4766 35.9863 67.5977 35.502 67.8399 35.0332C68.082 34.5645 68.4336 34.1465 68.8945 33.7793C69.3555 33.4121 69.9063 33.123 70.5469 32.9121C71.1875 32.7012 71.9063 32.5957 72.7031 32.5957C73.6563 32.5957 74.5 32.7559 75.2344 33.0762C75.9766 33.3965 76.5586 33.8809 76.9805 34.5293C77.4102 35.1699 77.625 35.9746 77.625 36.9434V42.5801C77.625 43.1582 77.6641 43.6777 77.7422 44.1387C77.8281 44.5918 77.9492 44.9863 78.1055 45.3223V45.5098H75.211C75.0781 45.2051 74.9727 44.8184 74.8945 44.3496C74.8242 43.873 74.7891 43.4121 74.7891 42.9668ZM75.1992 37.7988L75.2227 39.5449H73.1953C72.6719 39.5449 72.211 39.5957 71.8125 39.6973C71.4141 39.791 71.082 39.9316 70.8164 40.1191C70.5508 40.3066 70.3516 40.5332 70.2188 40.7988C70.086 41.0645 70.0195 41.3652 70.0195 41.7012C70.0195 42.0371 70.0977 42.3457 70.2539 42.627C70.4102 42.9004 70.6367 43.1152 70.9336 43.2715C71.2383 43.4277 71.6055 43.5059 72.0352 43.5059C72.6133 43.5059 73.1172 43.3887 73.5469 43.1543C73.9844 42.9121 74.3281 42.6191 74.5781 42.2754C74.8281 41.9238 74.961 41.5918 74.9766 41.2793L75.8906 42.5332C75.7969 42.8535 75.6367 43.1973 75.4102 43.5645C75.1836 43.9316 74.8867 44.2832 74.5195 44.6191C74.1602 44.9473 73.7266 45.2168 73.2188 45.4277C72.7188 45.6387 72.1406 45.7441 71.4844 45.7441C70.6563 45.7441 69.918 45.5801 69.2695 45.252C68.6211 44.916 68.1133 44.4668 67.7461 43.9043C67.3789 43.334 67.1953 42.6895 67.1953 41.9707C67.1953 41.2988 67.3203 40.7051 67.5703 40.1895C67.8281 39.666 68.2031 39.2285 68.6953 38.877C69.1953 38.5254 69.8047 38.2598 70.5235 38.0801C71.2422 37.8926 72.0625 37.7988 72.9844 37.7988H75.1992Z" fill="#242426"/>
<path d="M86.3906 32.8301V34.8926H79.2422V32.8301H86.3906ZM81.3047 29.7246H84.1289V42.0059C84.1289 42.3965 84.1836 42.6973 84.293 42.9082C84.4102 43.1113 84.5703 43.248 84.7735 43.3184C84.9766 43.3887 85.2149 43.4238 85.4883 43.4238C85.6836 43.4238 85.8711 43.4121 86.0508 43.3887C86.2305 43.3652 86.375 43.3418 86.4844 43.3184L86.4961 45.4746C86.2617 45.5449 85.9883 45.6074 85.6758 45.6621C85.3711 45.7168 85.0195 45.7441 84.6211 45.7441C83.9727 45.7441 83.3985 45.6309 82.8985 45.4043C82.3985 45.1699 82.0078 44.791 81.7266 44.2676C81.4453 43.7441 81.3047 43.0488 81.3047 42.1816V29.7246Z" fill="#242426"/>
<path d="M91.4063 35.2441V45.5098H88.582V32.8301H91.2774L91.4063 35.2441ZM95.2852 32.748L95.2617 35.373C95.0899 35.3418 94.9024 35.3184 94.6992 35.3027C94.5039 35.2871 94.3086 35.2793 94.1133 35.2793C93.6289 35.2793 93.2031 35.3496 92.836 35.4902C92.4688 35.623 92.1602 35.8184 91.9102 36.0762C91.668 36.3262 91.4805 36.6309 91.3477 36.9902C91.2149 37.3496 91.1367 37.752 91.1133 38.1973L90.4688 38.2441C90.4688 37.4473 90.5469 36.709 90.7031 36.0293C90.8594 35.3496 91.0938 34.752 91.4063 34.2363C91.7266 33.7207 92.125 33.3184 92.6016 33.0293C93.086 32.7402 93.6445 32.5957 94.2774 32.5957C94.4492 32.5957 94.6328 32.6113 94.8281 32.6426C95.0313 32.6738 95.1836 32.709 95.2852 32.748Z" fill="#242426"/>
<path d="M100.078 32.8301V45.5098H97.2422V32.8301H100.078ZM97.0547 29.502C97.0547 29.0723 97.1953 28.7168 97.4766 28.4355C97.7656 28.1465 98.1641 28.002 98.6719 28.002C99.1719 28.002 99.5664 28.1465 99.8555 28.4355C100.145 28.7168 100.289 29.0723 100.289 29.502C100.289 29.9238 100.145 30.2754 99.8555 30.5566C99.5664 30.8379 99.1719 30.9785 98.6719 30.9785C98.1641 30.9785 97.7656 30.8379 97.4766 30.5566C97.1953 30.2754 97.0547 29.9238 97.0547 29.502Z" fill="#242426"/>
<path d="M105.996 35.4082V45.5098H103.172V32.8301H105.832L105.996 35.4082ZM105.539 38.7012L104.578 38.6895C104.578 37.8145 104.688 37.0059 104.906 36.2637C105.125 35.5215 105.445 34.877 105.867 34.3301C106.289 33.7754 106.813 33.3496 107.438 33.0527C108.07 32.748 108.801 32.5957 109.629 32.5957C110.207 32.5957 110.734 32.6816 111.211 32.8535C111.695 33.0176 112.113 33.2793 112.465 33.6387C112.824 33.998 113.098 34.459 113.285 35.0215C113.48 35.584 113.578 36.2637 113.578 37.0605V45.5098H110.754V37.3066C110.754 36.6895 110.66 36.2051 110.473 35.8535C110.293 35.502 110.031 35.252 109.688 35.1035C109.352 34.9473 108.949 34.8691 108.48 34.8691C107.949 34.8691 107.496 34.9707 107.121 35.1738C106.754 35.377 106.453 35.6543 106.219 36.0059C105.984 36.3574 105.813 36.7637 105.703 37.2246C105.594 37.6855 105.539 38.1777 105.539 38.7012ZM113.402 37.9512L112.078 38.2441C112.078 37.4785 112.184 36.7559 112.395 36.0762C112.613 35.3887 112.93 34.7871 113.344 34.2715C113.766 33.748 114.285 33.3379 114.902 33.041C115.52 32.7441 116.227 32.5957 117.023 32.5957C117.672 32.5957 118.25 32.6855 118.758 32.8652C119.273 33.0371 119.711 33.3105 120.07 33.6855C120.43 34.0605 120.703 34.5488 120.891 35.1504C121.078 35.7441 121.172 36.4629 121.172 37.3066V45.5098H118.336V37.2949C118.336 36.6543 118.242 36.1582 118.055 35.8066C117.875 35.4551 117.617 35.2129 117.281 35.0801C116.945 34.9395 116.543 34.8691 116.074 34.8691C115.637 34.8691 115.25 34.9512 114.914 35.1152C114.586 35.2715 114.309 35.4941 114.082 35.7832C113.855 36.0645 113.684 36.3887 113.566 36.7559C113.457 37.123 113.402 37.5215 113.402 37.9512Z" fill="#242426"/>
<path d="M123.539 39.3105V39.041C123.539 38.127 123.672 37.2793 123.938 36.498C124.203 35.709 124.586 35.0254 125.086 34.4473C125.594 33.8613 126.211 33.4082 126.938 33.0879C127.672 32.7598 128.5 32.5957 129.422 32.5957C130.352 32.5957 131.18 32.7598 131.906 33.0879C132.641 33.4082 133.262 33.8613 133.77 34.4473C134.277 35.0254 134.664 35.709 134.93 36.498C135.195 37.2793 135.328 38.127 135.328 39.041V39.3105C135.328 40.2246 135.195 41.0723 134.93 41.8535C134.664 42.6348 134.277 43.3184 133.77 43.9043C133.262 44.4824 132.645 44.9355 131.918 45.2637C131.191 45.584 130.367 45.7441 129.445 45.7441C128.516 45.7441 127.684 45.584 126.949 45.2637C126.223 44.9355 125.605 44.4824 125.098 43.9043C124.59 43.3184 124.203 42.6348 123.938 41.8535C123.672 41.0723 123.539 40.2246 123.539 39.3105ZM126.363 39.041V39.3105C126.363 39.8809 126.422 40.4199 126.539 40.9277C126.656 41.4355 126.84 41.8809 127.09 42.2637C127.34 42.6465 127.66 42.9473 128.051 43.166C128.441 43.3848 128.906 43.4941 129.445 43.4941C129.969 43.4941 130.422 43.3848 130.805 43.166C131.195 42.9473 131.516 42.6465 131.766 42.2637C132.016 41.8809 132.199 41.4355 132.316 40.9277C132.441 40.4199 132.504 39.8809 132.504 39.3105V39.041C132.504 38.4785 132.441 37.9473 132.316 37.4473C132.199 36.9395 132.012 36.4902 131.754 36.0996C131.504 35.709 131.184 35.4043 130.793 35.1855C130.41 34.959 129.953 34.8457 129.422 34.8457C128.891 34.8457 128.43 34.959 128.039 35.1855C127.656 35.4043 127.34 35.709 127.09 36.0996C126.84 36.4902 126.656 36.9395 126.539 37.4473C126.422 37.9473 126.363 38.4785 126.363 39.041ZM130.207 27.5098L133.453 30.7441V30.873H131.168L129.375 29.0332L127.582 30.873H125.344V30.7207L128.543 27.5098H130.207Z" fill="#242426"/>
<path d="M140.496 35.5371V45.5098H137.672V32.8301H140.332L140.496 35.5371ZM139.992 38.7012L139.078 38.6895C139.086 37.791 139.211 36.9668 139.453 36.2168C139.703 35.4668 140.047 34.8223 140.484 34.2832C140.93 33.7441 141.461 33.3301 142.078 33.041C142.695 32.7441 143.383 32.5957 144.141 32.5957C144.75 32.5957 145.301 32.6816 145.793 32.8535C146.293 33.0176 146.719 33.2871 147.07 33.6621C147.43 34.0371 147.703 34.5254 147.891 35.127C148.078 35.7207 148.172 36.4512 148.172 37.3184V45.5098H145.336V37.3066C145.336 36.6973 145.246 36.2168 145.066 35.8652C144.895 35.5059 144.641 35.252 144.305 35.1035C143.977 34.9473 143.566 34.8691 143.074 34.8691C142.59 34.8691 142.156 34.9707 141.773 35.1738C141.391 35.377 141.066 35.6543 140.801 36.0059C140.543 36.3574 140.344 36.7637 140.203 37.2246C140.063 37.6855 139.992 38.1777 139.992 38.7012Z" fill="#242426"/>
<path d="M154.078 32.8301V45.5098H151.242V32.8301H154.078ZM151.055 29.502C151.055 29.0723 151.195 28.7168 151.477 28.4355C151.766 28.1465 152.164 28.002 152.672 28.002C153.172 28.002 153.566 28.1465 153.855 28.4355C154.145 28.7168 154.289 29.0723 154.289 29.502C154.289 29.9238 154.145 30.2754 153.855 30.5566C153.566 30.8379 153.172 30.9785 152.672 30.9785C152.164 30.9785 151.766 30.8379 151.477 30.5566C151.195 30.2754 151.055 29.9238 151.055 29.502Z" fill="#242426"/>
<path d="M156.633 39.3105V39.041C156.633 38.127 156.766 37.2793 157.031 36.498C157.297 35.709 157.68 35.0254 158.18 34.4473C158.688 33.8613 159.305 33.4082 160.031 33.0879C160.766 32.7598 161.594 32.5957 162.516 32.5957C163.445 32.5957 164.273 32.7598 165 33.0879C165.734 33.4082 166.355 33.8613 166.863 34.4473C167.371 35.0254 167.758 35.709 168.023 36.498C168.289 37.2793 168.422 38.127 168.422 39.041V39.3105C168.422 40.2246 168.289 41.0723 168.023 41.8535C167.758 42.6348 167.371 43.3184 166.863 43.9043C166.355 44.4824 165.738 44.9355 165.012 45.2637C164.285 45.584 163.461 45.7441 162.539 45.7441C161.609 45.7441 160.777 45.584 160.043 45.2637C159.316 44.9355 158.699 44.4824 158.191 43.9043C157.684 43.3184 157.297 42.6348 157.031 41.8535C156.766 41.0723 156.633 40.2246 156.633 39.3105ZM159.457 39.041V39.3105C159.457 39.8809 159.516 40.4199 159.633 40.9277C159.75 41.4355 159.934 41.8809 160.184 42.2637C160.434 42.6465 160.754 42.9473 161.145 43.166C161.535 43.3848 162 43.4941 162.539 43.4941C163.063 43.4941 163.516 43.3848 163.898 43.166C164.289 42.9473 164.609 42.6465 164.859 42.2637C165.109 41.8809 165.293 41.4355 165.41 40.9277C165.535 40.4199 165.598 39.8809 165.598 39.3105V39.041C165.598 38.4785 165.535 37.9473 165.41 37.4473C165.293 36.9395 165.105 36.4902 164.848 36.0996C164.598 35.709 164.277 35.4043 163.887 35.1855C163.504 34.959 163.047 34.8457 162.516 34.8457C161.984 34.8457 161.523 34.959 161.133 35.1855C160.75 35.4043 160.434 35.709 160.184 36.0996C159.934 36.4902 159.75 36.9395 159.633 37.4473C159.516 37.9473 159.457 38.4785 159.457 39.041Z" fill="#242426"/>
<path d="M183.527 39.1465H179.086V36.8145H183.527C184.301 36.8145 184.926 36.6895 185.402 36.4395C185.879 36.1895 186.227 35.8457 186.445 35.4082C186.672 34.9629 186.785 34.4551 186.785 33.8848C186.785 33.3457 186.672 32.8418 186.445 32.373C186.227 31.8965 185.879 31.5137 185.402 31.2246C184.926 30.9355 184.301 30.791 183.527 30.791H179.988V45.5098H177.047V28.4473H183.527C184.848 28.4473 185.969 28.6816 186.891 29.1504C187.82 29.6113 188.527 30.252 189.012 31.0723C189.496 31.8848 189.738 32.8145 189.738 33.8613C189.738 34.9629 189.496 35.9082 189.012 36.6973C188.527 37.4863 187.82 38.0918 186.891 38.5137C185.969 38.9355 184.848 39.1465 183.527 39.1465Z" fill="#242426"/>
<path d="M199.723 42.5215V32.8301H202.559V45.5098H199.887L199.723 42.5215ZM200.121 39.8848L201.07 39.8613C201.07 40.7129 200.977 41.498 200.789 42.2168C200.602 42.9277 200.313 43.5488 199.922 44.0801C199.531 44.6035 199.031 45.0137 198.422 45.3105C197.813 45.5996 197.082 45.7441 196.23 45.7441C195.613 45.7441 195.047 45.6543 194.531 45.4746C194.016 45.2949 193.57 45.0176 193.195 44.6426C192.828 44.2676 192.543 43.7793 192.34 43.1777C192.137 42.5762 192.035 41.8574 192.035 41.0215V32.8301H194.859V41.0449C194.859 41.5059 194.914 41.8926 195.023 42.2051C195.133 42.5098 195.281 42.7559 195.469 42.9434C195.656 43.1309 195.875 43.2637 196.125 43.3418C196.375 43.4199 196.641 43.459 196.922 43.459C197.727 43.459 198.359 43.3027 198.82 42.9902C199.289 42.6699 199.621 42.2402 199.816 41.7012C200.02 41.1621 200.121 40.5566 200.121 39.8848ZM195.902 31.0371L198.188 27.5098H201.375L198.188 31.0371H195.902Z" fill="#242426"/>
<path d="M205.465 27.5098H208.289V42.8027L208.02 45.5098H205.465V27.5098ZM216.563 39.0527V39.2988C216.563 40.2363 216.457 41.0996 216.246 41.8887C216.043 42.6699 215.73 43.3496 215.309 43.9277C214.895 44.5059 214.379 44.9551 213.762 45.2754C213.152 45.5879 212.445 45.7441 211.641 45.7441C210.852 45.7441 210.164 45.5957 209.578 45.2988C208.992 45.002 208.5 44.5801 208.102 44.0332C207.711 43.4863 207.395 42.834 207.152 42.0762C206.91 41.3184 206.738 40.4824 206.637 39.5684V38.7832C206.738 37.8613 206.91 37.0254 207.152 36.2754C207.395 35.5176 207.711 34.8652 208.102 34.3184C208.5 33.7637 208.988 33.3379 209.566 33.041C210.152 32.7441 210.836 32.5957 211.617 32.5957C212.43 32.5957 213.145 32.752 213.762 33.0645C214.387 33.377 214.906 33.8223 215.32 34.4004C215.734 34.9707 216.043 35.6504 216.246 36.4395C216.457 37.2285 216.563 38.0996 216.563 39.0527ZM213.738 39.2988V39.0527C213.738 38.4824 213.691 37.9473 213.598 37.4473C213.504 36.9395 213.348 36.4941 213.129 36.1113C212.918 35.7285 212.629 35.4277 212.262 35.209C211.902 34.9824 211.453 34.8691 210.914 34.8691C210.414 34.8691 209.984 34.9551 209.625 35.127C209.266 35.2988 208.965 35.5332 208.723 35.8301C208.48 36.127 208.289 36.4707 208.148 36.8613C208.016 37.252 207.926 37.6738 207.879 38.127V40.248C207.949 40.834 208.098 41.373 208.324 41.8652C208.559 42.3496 208.887 42.7402 209.309 43.0371C209.73 43.3262 210.273 43.4707 210.938 43.4707C211.461 43.4707 211.902 43.3652 212.262 43.1543C212.621 42.9434 212.906 42.6504 213.117 42.2754C213.336 41.8926 213.492 41.4473 213.586 40.9395C213.688 40.4316 213.738 39.8848 213.738 39.2988Z" fill="#242426"/>
<path d="M221.977 27.5098V45.5098H219.141V27.5098H221.977Z" fill="#242426"/>
<path d="M228.094 32.8301V45.5098H225.258V32.8301H228.094ZM225.07 29.502C225.07 29.0723 225.211 28.7168 225.492 28.4355C225.781 28.1465 226.18 28.002 226.688 28.002C227.188 28.002 227.582 28.1465 227.871 28.4355C228.16 28.7168 228.305 29.0723 228.305 29.502C228.305 29.9238 228.16 30.2754 227.871 30.5566C227.582 30.8379 227.188 30.9785 226.688 30.9785C226.18 30.9785 225.781 30.8379 225.492 30.5566C225.211 30.2754 225.07 29.9238 225.07 29.502Z" fill="#242426"/>
<path d="M236.367 43.4941C236.828 43.4941 237.242 43.4043 237.609 43.2246C237.984 43.0371 238.285 42.7793 238.512 42.4512C238.746 42.123 238.875 41.7441 238.898 41.3145H241.559C241.543 42.1348 241.301 42.8809 240.832 43.5527C240.363 44.2246 239.742 44.7598 238.969 45.1582C238.195 45.5488 237.34 45.7441 236.402 45.7441C235.434 45.7441 234.59 45.5801 233.871 45.252C233.152 44.916 232.555 44.4551 232.078 43.8691C231.602 43.2832 231.242 42.6074 231 41.8418C230.766 41.0762 230.648 40.2559 230.648 39.3809V38.9707C230.648 38.0957 230.766 37.2754 231 36.5098C231.242 35.7363 231.602 35.0566 232.078 34.4707C232.555 33.8848 233.152 33.4277 233.871 33.0996C234.59 32.7637 235.43 32.5957 236.391 32.5957C237.406 32.5957 238.297 32.7988 239.063 33.2051C239.828 33.6035 240.43 34.1621 240.867 34.8809C241.313 35.5918 241.543 36.4199 241.559 37.3652H238.898C238.875 36.8965 238.758 36.4746 238.547 36.0996C238.344 35.7168 238.055 35.4121 237.68 35.1855C237.313 34.959 236.871 34.8457 236.355 34.8457C235.785 34.8457 235.313 34.9629 234.938 35.1973C234.563 35.4238 234.27 35.7363 234.059 36.1348C233.848 36.5254 233.695 36.9668 233.602 37.459C233.516 37.9434 233.473 38.4473 233.473 38.9707V39.3809C233.473 39.9043 233.516 40.4121 233.602 40.9043C233.688 41.3965 233.836 41.8379 234.047 42.2285C234.266 42.6113 234.563 42.9199 234.938 43.1543C235.313 43.3809 235.789 43.4941 236.367 43.4941Z" fill="#242426"/>
<path d="M243.188 39.3105V39.041C243.188 38.127 243.32 37.2793 243.586 36.498C243.852 35.709 244.234 35.0254 244.734 34.4473C245.242 33.8613 245.859 33.4082 246.586 33.0879C247.32 32.7598 248.148 32.5957 249.07 32.5957C250 32.5957 250.828 32.7598 251.555 33.0879C252.289 33.4082 252.91 33.8613 253.418 34.4473C253.926 35.0254 254.313 35.709 254.578 36.498C254.844 37.2793 254.977 38.127 254.977 39.041V39.3105C254.977 40.2246 254.844 41.0723 254.578 41.8535C254.313 42.6348 253.926 43.3184 253.418 43.9043C252.91 44.4824 252.293 44.9355 251.566 45.2637C250.84 45.584 250.016 45.7441 249.094 45.7441C248.164 45.7441 247.332 45.584 246.598 45.2637C245.871 44.9355 245.254 44.4824 244.746 43.9043C244.238 43.3184 243.852 42.6348 243.586 41.8535C243.32 41.0723 243.188 40.2246 243.188 39.3105ZM246.012 39.041V39.3105C246.012 39.8809 246.07 40.4199 246.188 40.9277C246.305 41.4355 246.488 41.8809 246.738 42.2637C246.988 42.6465 247.309 42.9473 247.699 43.166C248.09 43.3848 248.555 43.4941 249.094 43.4941C249.617 43.4941 250.07 43.3848 250.453 43.166C250.844 42.9473 251.164 42.6465 251.414 42.2637C251.664 41.8809 251.848 41.4355 251.965 40.9277C252.09 40.4199 252.152 39.8809 252.152 39.3105V39.041C252.152 38.4785 252.09 37.9473 251.965 37.4473C251.848 36.9395 251.66 36.4902 251.402 36.0996C251.152 35.709 250.832 35.4043 250.441 35.1855C250.059 34.959 249.602 34.8457 249.07 34.8457C248.539 34.8457 248.078 34.959 247.688 35.1855C247.305 35.4043 246.988 35.709 246.738 36.0996C246.488 36.4902 246.305 36.9395 246.188 37.4473C246.07 37.9473 246.012 38.4785 246.012 39.041Z" fill="#242426"/>
</svg>
